<svg xmlns="http://www.w3.org/2000/svg" viewBox="0 0 512 512" width="512" height="512">
  <title>Christopher Robin Design — Favicon</title>
  
    <circle cx="256" cy="256" r="256" fill="#12322F"/>
    <g transform="translate(107.02579528808593,104.49830566406251) scale(0.62)">
      <path d="M 138.186 0.000 C 139.631 0.552 140.273 0.676 141.558 1.500 C 133.278 29.360 136.813 51.708 159.477 71.502 C 161.336 60.817 165.132 53.477 170.215 43.873 L 173.172 45.671 C 167.601 57.670 164.255 66.285 166.511 79.612 C 180.946 97.721 187.317 108.285 193.041 131.393 C 206.820 113.301 210.372 97.307 221.865 78.788 C 229.684 66.182 248.707 60.318 260.505 53.337 C 266.198 49.968 273.995 42.370 279.284 37.744 C 280.000 39.457 280.092 40.068 281.143 41.509 C 277.897 45.681 274.193 50.696 270.649 54.501 C 301.332 55.030 299.069 67.725 331.642 61.705 C 323.091 65.815 317.718 67.247 308.153 67.528 C 296.950 67.858 286.768 62.855 275.946 62.443 C 251.565 61.732 229.532 76.907 221.507 99.941 C 218.626 108.051 216.195 116.395 213.146 124.528 C 210.044 132.800 202.979 146.454 201.569 154.583 C 200.388 161.339 203.094 178.584 203.764 186.417 C 204.953 200.315 204.755 215.939 207.331 229.344 C 225.233 216.955 244.051 212.827 260.025 199.079 C 276.342 184.570 274.284 160.259 288.033 143.972 C 294.481 136.341 302.148 128.169 311.385 124.381 C 324.463 119.013 328.037 112.129 337.282 102.655 C 342.137 97.690 350.726 92.748 356.297 87.855 L 358.599 90.401 C 347.411 100.188 341.634 104.778 332.999 116.967 C 346.450 116.681 351.473 117.101 364.391 120.776 L 365.046 121.773 C 364.421 122.354 363.598 123.149 362.966 123.697 C 327.565 115.775 297.712 136.872 289.763 172.040 C 288.803 176.278 288.201 180.732 287.599 185.042 C 299.351 180.655 307.826 179.857 319.219 176.818 C 330.164 173.898 340.689 160.269 355.154 163.415 C 357.966 163.801 362.067 163.704 364.254 165.768 C 360.939 168.348 347.533 162.393 330.270 178.383 C 340.285 180.932 344.553 182.802 353.767 187.628 L 351.023 190.335 C 325.027 178.487 301.302 187.509 279.703 205.317 C 274.726 210.126 267.829 219.633 262.044 222.903 C 230.896 240.500 211.302 250.196 207.598 289.059 C 206.203 303.657 197.263 319.158 199.603 337.358 C 204.747 377.314 239.531 374.142 269.803 382.574 C 282.066 385.845 336.390 400.091 343.806 406.394 L 343.249 406.849 C 327.725 402.260 309.175 400.800 292.964 398.190 C 202.171 383.569 110.206 388.277 19.863 403.655 C 16.598 404.210 6.499 406.880 4.353 405.506 C 7.486 403.361 13.972 402.019 17.907 400.399 C 38.680 391.737 60.535 386.783 82.302 381.486 C 94.955 378.406 114.096 375.905 125.015 369.366 C 129.658 366.639 133.645 362.925 136.694 358.486 C 141.833 350.862 143.624 341.855 147.511 334.034 C 155.338 318.259 164.050 306.124 168.241 288.612 C 173.843 266.555 172.845 243.101 159.934 223.605 C 142.186 196.804 117.800 174.183 85.385 167.460 C 77.839 165.895 71.692 165.772 64.791 164.763 C 44.483 161.794 34.454 168.906 18.136 179.012 L 15.997 176.324 C 23.266 171.200 29.610 167.043 37.375 162.678 C 19.690 157.130 15.743 153.695 0.000 145.796 L 2.445 144.065 C 26.180 153.494 34.422 158.104 60.243 155.409 C 57.069 152.009 51.017 145.591 48.587 141.723 C 39.439 127.156 36.001 118.555 22.998 106.487 L 26.146 102.877 C 31.093 107.227 35.964 111.661 40.759 116.178 C 45.916 94.872 47.018 90.473 41.772 68.830 C 53.963 87.569 50.057 96.350 48.677 116.967 C 47.527 134.172 67.302 148.477 81.744 153.692 C 88.836 156.254 98.528 157.707 106.399 160.131 C 113.453 162.358 120.318 165.145 126.930 168.465 C 144.225 177.247 164.065 194.336 177.448 208.450 C 180.778 174.054 181.098 141.585 169.331 108.524 C 149.859 53.803 109.556 90.910 87.556 31.336 C 95.717 38.772 102.183 50.365 111.434 55.978 C 118.661 60.362 130.699 62.822 139.092 65.003 C 127.960 39.248 138.191 33.926 111.760 15.087 L 113.093 12.151 C 120.661 17.384 125.197 20.563 131.383 27.305 C 132.222 18.785 135.687 8.375 138.186 0.000" fill="#F9F6ED" fill-rule="nonzero" transform="translate(58.76,56.06)"/>
      <path d="M 0.000 0.000 C 4.766 0.630 9.798 1.116 14.598 1.648 C 32.650 3.653 50.903 15.099 47.337 35.845 L 44.189 39.456 C 14.202 43.229 5.831 24.981 0.000 0.000" fill="#F9F6ED" fill-rule="nonzero" transform="translate(37.57,123.09)"/>
      <path d="M 2.372 51.766 C -0.669 46.371 -0.501 35.435 1.275 29.550 C 6.106 13.487 21.974 8.424 34.641 0.000 C 37.758 27.146 37.178 46.517 5.329 53.565 L 2.372 51.766" fill="#F9F6ED" fill-rule="nonzero" transform="translate(226.60,48.17)"/>
      <path d="M 0.000 38.757 C 6.624 12.602 17.970 -5.011 48.578 1.279 L 50.718 3.967 C 46.185 36.277 25.162 34.523 0.000 38.757" fill="#F9F6ED" fill-rule="nonzero" transform="translate(26.18,231.10)"/>
      <path d="M 0.000 13.783 C 14.134 3.914 27.689 -4.887 45.556 3.120 C 54.173 6.981 56.225 11.705 61.204 18.841 L 58.760 20.572 C 37.640 40.942 18.485 27.857 0.000 13.783" fill="#F9F6ED" fill-rule="nonzero" transform="translate(0.00,181.28)"/>
      <path d="M 6.496 56.059 C -9.089 30.816 5.697 14.207 26.271 0.000 C 30.607 13.913 35.873 27.093 29.136 41.481 C 23.481 53.555 14.906 53.300 9.869 57.559 C 8.584 56.735 7.941 56.611 6.496 56.059" fill="#F9F6ED" fill-rule="nonzero" transform="translate(190.45,-0.00)"/>
      <path d="M 0.000 36.814 C 2.180 6.599 20.890 3.574 45.598 0.000 C 41.300 26.925 33.221 44.097 1.860 40.580 C 0.808 39.138 0.716 38.527 0.000 36.814" fill="#F9F6ED" fill-rule="nonzero" transform="translate(336.19,56.66)"/>
      <path d="M 0.000 35.712 C 4.801 4.711 19.457 2.323 46.711 0.000 C 42.260 26.844 31.956 41.470 2.302 38.258 L 0.000 35.712" fill="#F9F6ED" fill-rule="nonzero" transform="translate(415.06,108.20)"/>
      <path d="M 2.744 1.179 C 33.557 -3.901 41.955 7.482 51.383 34.350 C 35.912 33.154 19.259 36.212 8.620 23.342 C 1.623 14.879 3.026 11.459 0.000 3.887 L 2.744 1.179" fill="#F9F6ED" fill-rule="nonzero" transform="translate(409.78,242.51)"/>
      <path d="M 1.425 9.313 L 2.744 8.680 C 7.362 6.409 10.777 3.223 15.829 1.549 C 33.717 -4.382 46.109 7.904 58.837 18.304 C 39.372 31.612 17.338 38.381 1.700 14.847 C 1.120 13.981 0.556 13.110 0.000 12.234 C 0.633 11.686 1.456 10.892 2.081 10.310 L 1.425 9.313" fill="#F9F6ED" fill-rule="nonzero" transform="translate(421.73,167.52)"/>
      <path d="M 0.000 0.238 C 24.121 0.162 44.582 -4.108 49.925 26.974 L 48.592 29.911 C 21.667 39.259 8.442 23.126 0.000 0.238" fill="#F9F6ED" fill-rule="nonzero" transform="translate(121.93,41.24)"/>
    </g>
  
</svg>
