<svg xmlns="http://www.w3.org/2000/svg" viewBox="0 0 1254 1320" width="1254" height="1320">
  <title>Christopher Robin Design — Primary Lockup</title>
  
    <g transform="translate(386.7190246582031, 146)">
      <path d="M 138.186 0.000 C 139.631 0.552 140.273 0.676 141.558 1.500 C 133.278 29.360 136.813 51.708 159.477 71.502 C 161.336 60.817 165.132 53.477 170.215 43.873 L 173.172 45.671 C 167.601 57.670 164.255 66.285 166.511 79.612 C 180.946 97.721 187.317 108.285 193.041 131.393 C 206.820 113.301 210.372 97.307 221.865 78.788 C 229.684 66.182 248.707 60.318 260.505 53.337 C 266.198 49.968 273.995 42.370 279.284 37.744 C 280.000 39.457 280.092 40.068 281.143 41.509 C 277.897 45.681 274.193 50.696 270.649 54.501 C 301.332 55.030 299.069 67.725 331.642 61.705 C 323.091 65.815 317.718 67.247 308.153 67.528 C 296.950 67.858 286.768 62.855 275.946 62.443 C 251.565 61.732 229.532 76.907 221.507 99.941 C 218.626 108.051 216.195 116.395 213.146 124.528 C 210.044 132.800 202.979 146.454 201.569 154.583 C 200.388 161.339 203.094 178.584 203.764 186.417 C 204.953 200.315 204.755 215.939 207.331 229.344 C 225.233 216.955 244.051 212.827 260.025 199.079 C 276.342 184.570 274.284 160.259 288.033 143.972 C 294.481 136.341 302.148 128.169 311.385 124.381 C 324.463 119.013 328.037 112.129 337.282 102.655 C 342.137 97.690 350.726 92.748 356.297 87.855 L 358.599 90.401 C 347.411 100.188 341.634 104.778 332.999 116.967 C 346.450 116.681 351.473 117.101 364.391 120.776 L 365.046 121.773 C 364.421 122.354 363.598 123.149 362.966 123.697 C 327.565 115.775 297.712 136.872 289.763 172.040 C 288.803 176.278 288.201 180.732 287.599 185.042 C 299.351 180.655 307.826 179.857 319.219 176.818 C 330.164 173.898 340.689 160.269 355.154 163.415 C 357.966 163.801 362.067 163.704 364.254 165.768 C 360.939 168.348 347.533 162.393 330.270 178.383 C 340.285 180.932 344.553 182.802 353.767 187.628 L 351.023 190.335 C 325.027 178.487 301.302 187.509 279.703 205.317 C 274.726 210.126 267.829 219.633 262.044 222.903 C 230.896 240.500 211.302 250.196 207.598 289.059 C 206.203 303.657 197.263 319.158 199.603 337.358 C 204.747 377.314 239.531 374.142 269.803 382.574 C 282.066 385.845 336.390 400.091 343.806 406.394 L 343.249 406.849 C 327.725 402.260 309.175 400.800 292.964 398.190 C 202.171 383.569 110.206 388.277 19.863 403.655 C 16.598 404.210 6.499 406.880 4.353 405.506 C 7.486 403.361 13.972 402.019 17.907 400.399 C 38.680 391.737 60.535 386.783 82.302 381.486 C 94.955 378.406 114.096 375.905 125.015 369.366 C 129.658 366.639 133.645 362.925 136.694 358.486 C 141.833 350.862 143.624 341.855 147.511 334.034 C 155.338 318.259 164.050 306.124 168.241 288.612 C 173.843 266.555 172.845 243.101 159.934 223.605 C 142.186 196.804 117.800 174.183 85.385 167.460 C 77.839 165.895 71.692 165.772 64.791 164.763 C 44.483 161.794 34.454 168.906 18.136 179.012 L 15.997 176.324 C 23.266 171.200 29.610 167.043 37.375 162.678 C 19.690 157.130 15.743 153.695 0.000 145.796 L 2.445 144.065 C 26.180 153.494 34.422 158.104 60.243 155.409 C 57.069 152.009 51.017 145.591 48.587 141.723 C 39.439 127.156 36.001 118.555 22.998 106.487 L 26.146 102.877 C 31.093 107.227 35.964 111.661 40.759 116.178 C 45.916 94.872 47.018 90.473 41.772 68.830 C 53.963 87.569 50.057 96.350 48.677 116.967 C 47.527 134.172 67.302 148.477 81.744 153.692 C 88.836 156.254 98.528 157.707 106.399 160.131 C 113.453 162.358 120.318 165.145 126.930 168.465 C 144.225 177.247 164.065 194.336 177.448 208.450 C 180.778 174.054 181.098 141.585 169.331 108.524 C 149.859 53.803 109.556 90.910 87.556 31.336 C 95.717 38.772 102.183 50.365 111.434 55.978 C 118.661 60.362 130.699 62.822 139.092 65.003 C 127.960 39.248 138.191 33.926 111.760 15.087 L 113.093 12.151 C 120.661 17.384 125.197 20.563 131.383 27.305 C 132.222 18.785 135.687 8.375 138.186 0.000" fill="#12322F" fill-rule="nonzero" transform="translate(58.76,56.06)"/>
      <path d="M 0.000 0.000 C 4.766 0.630 9.798 1.116 14.598 1.648 C 32.650 3.653 50.903 15.099 47.337 35.845 L 44.189 39.456 C 14.202 43.229 5.831 24.981 0.000 0.000" fill="#6B7A3D" fill-rule="nonzero" transform="translate(37.57,123.09)"/>
      <path d="M 2.372 51.766 C -0.669 46.371 -0.501 35.435 1.275 29.550 C 6.106 13.487 21.974 8.424 34.641 0.000 C 37.758 27.146 37.178 46.517 5.329 53.565 L 2.372 51.766" fill="#6B7A3D" fill-rule="nonzero" transform="translate(226.60,48.17)"/>
      <path d="M 0.000 38.757 C 6.624 12.602 17.970 -5.011 48.578 1.279 L 50.718 3.967 C 46.185 36.277 25.162 34.523 0.000 38.757" fill="#6B7A3D" fill-rule="nonzero" transform="translate(26.18,231.10)"/>
      <path d="M 0.000 13.783 C 14.134 3.914 27.689 -4.887 45.556 3.120 C 54.173 6.981 56.225 11.705 61.204 18.841 L 58.760 20.572 C 37.640 40.942 18.485 27.857 0.000 13.783" fill="#6B7A3D" fill-rule="nonzero" transform="translate(0.00,181.28)"/>
      <path d="M 6.496 56.059 C -9.089 30.816 5.697 14.207 26.271 0.000 C 30.607 13.913 35.873 27.093 29.136 41.481 C 23.481 53.555 14.906 53.300 9.869 57.559 C 8.584 56.735 7.941 56.611 6.496 56.059" fill="#6B7A3D" fill-rule="nonzero" transform="translate(190.45,-0.00)"/>
      <path d="M 0.000 36.814 C 2.180 6.599 20.890 3.574 45.598 0.000 C 41.300 26.925 33.221 44.097 1.860 40.580 C 0.808 39.138 0.716 38.527 0.000 36.814" fill="#6B7A3D" fill-rule="nonzero" transform="translate(336.19,56.66)"/>
      <path d="M 0.000 35.712 C 4.801 4.711 19.457 2.323 46.711 0.000 C 42.260 26.844 31.956 41.470 2.302 38.258 L 0.000 35.712" fill="#6B7A3D" fill-rule="nonzero" transform="translate(415.06,108.20)"/>
      <path d="M 2.744 1.179 C 33.557 -3.901 41.955 7.482 51.383 34.350 C 35.912 33.154 19.259 36.212 8.620 23.342 C 1.623 14.879 3.026 11.459 0.000 3.887 L 2.744 1.179" fill="#6B7A3D" fill-rule="nonzero" transform="translate(409.78,242.51)"/>
      <path d="M 1.425 9.313 L 2.744 8.680 C 7.362 6.409 10.777 3.223 15.829 1.549 C 33.717 -4.382 46.109 7.904 58.837 18.304 C 39.372 31.612 17.338 38.381 1.700 14.847 C 1.120 13.981 0.556 13.110 0.000 12.234 C 0.633 11.686 1.456 10.892 2.081 10.310 L 1.425 9.313" fill="#6B7A3D" fill-rule="nonzero" transform="translate(421.73,167.52)"/>
      <path d="M 0.000 0.238 C 24.121 0.162 44.582 -4.108 49.925 26.974 L 48.592 29.911 C 21.667 39.259 8.442 23.126 0.000 0.238" fill="#6B7A3D" fill-rule="nonzero" transform="translate(121.93,41.24)"/>
    </g>
    <g transform="translate(131.2547607421875, 648.26)">
      <path d="M 55.355 0.000 C 58.559 0.000 61.348 0.653 63.721 1.958 C 66.213 3.263 68.111 4.984 69.417 7.120 C 70.840 9.137 71.552 11.451 71.552 14.061 C 71.552 17.028 70.603 19.638 68.705 21.893 C 66.925 24.147 64.492 25.275 61.407 25.275 C 58.915 25.275 56.720 24.503 54.821 22.961 C 52.923 21.300 51.973 18.986 51.973 16.019 C 51.973 13.765 52.567 11.866 53.753 10.323 C 55.059 8.662 56.483 7.357 58.025 6.408 C 57.195 5.221 55.949 4.628 54.287 4.628 C 50.609 4.628 47.227 5.755 44.142 8.010 C 41.057 10.145 38.446 12.934 36.310 16.375 C 34.174 19.816 32.513 23.495 31.326 27.411 C 30.140 31.208 29.547 34.768 29.547 38.090 L 29.547 75.824 C 29.547 81.639 31.208 85.554 34.530 87.572 C 37.971 89.470 42.599 90.419 48.414 90.419 L 48.414 94.157 C 45.684 94.039 41.828 93.920 36.844 93.801 C 31.860 93.564 26.580 93.445 21.003 93.445 C 16.969 93.445 12.934 93.564 8.900 93.801 C 4.984 93.920 2.017 94.039 0.000 94.157 L 0.000 90.419 C 4.865 90.419 8.306 89.530 10.323 87.750 C 12.459 85.970 13.527 82.588 13.527 77.604 L 13.527 21.893 C 13.527 16.553 12.578 12.637 10.679 10.145 C 8.781 7.535 5.221 6.230 0.000 6.230 L 0.000 2.492 C 3.797 2.848 7.476 3.026 11.035 3.026 C 14.477 3.026 17.740 2.848 20.825 2.492 C 24.029 2.017 26.936 1.365 29.547 0.534 L 29.547 22.783 C 30.852 19.342 32.691 15.901 35.064 12.459 C 37.556 8.900 40.523 5.933 43.964 3.560 C 47.405 1.187 51.202 0.000 55.355 0.000" fill="#12322F" fill-rule="nonzero" transform="translate(919.94,51.43)"/>
      <path d="M 40.226 0.000 C 50.668 0.000 58.796 3.204 64.611 9.612 C 70.544 15.901 73.510 25.749 73.510 39.158 L 10.679 39.158 L 10.501 35.776 L 56.423 35.776 C 56.660 29.962 56.186 24.622 54.999 19.757 C 53.813 14.773 51.914 10.798 49.304 7.832 C 46.812 4.865 43.548 3.382 39.514 3.382 C 34.056 3.382 29.191 6.111 24.919 11.569 C 20.766 17.028 18.274 25.690 17.443 37.556 L 17.977 38.268 C 17.740 40.048 17.562 42.006 17.443 44.142 C 17.324 46.278 17.265 48.414 17.265 50.549 C 17.265 58.618 18.570 65.560 21.181 71.374 C 23.791 77.189 27.173 81.639 31.326 84.724 C 35.598 87.690 39.989 89.174 44.498 89.174 C 48.058 89.174 51.439 88.640 54.643 87.572 C 57.847 86.385 60.814 84.486 63.543 81.876 C 66.272 79.265 68.645 75.765 70.662 71.374 L 74.222 72.798 C 72.917 76.714 70.781 80.511 67.815 84.190 C 64.848 87.868 61.110 90.894 56.601 93.267 C 52.092 95.522 46.871 96.649 40.938 96.649 C 32.394 96.649 25.037 94.691 18.867 90.775 C 12.815 86.860 8.128 81.461 4.806 74.578 C 1.602 67.577 0.000 59.568 0.000 50.549 C 0.000 40.107 1.661 31.148 4.984 23.673 C 8.306 16.079 12.993 10.264 19.045 6.230 C 25.097 2.077 32.157 0.000 40.226 0.000" fill="#12322F" fill-rule="nonzero" transform="translate(832.93,51.43)"/>
      <path d="M 29.547 0.000 L 29.547 66.569 C 32.632 58.500 36.903 52.923 42.362 49.838 C 47.939 46.752 53.753 45.210 59.805 45.210 C 64.314 45.210 68.052 45.803 71.018 46.990 C 74.104 48.176 76.655 49.838 78.672 51.973 C 80.927 54.347 82.529 57.313 83.478 60.873 C 84.427 64.433 84.902 69.239 84.902 75.290 L 84.902 122.814 C 84.902 127.798 85.910 131.179 87.928 132.959 C 90.064 134.739 93.564 135.629 98.429 135.629 L 98.429 139.367 C 96.412 139.248 93.327 139.130 89.174 139.011 C 85.020 138.774 80.986 138.655 77.070 138.655 C 73.154 138.655 69.298 138.774 65.501 139.011 C 61.822 139.130 59.034 139.248 57.135 139.367 L 57.135 135.629 C 61.407 135.629 64.433 134.739 66.213 132.959 C 67.993 131.179 68.883 127.798 68.883 122.814 L 68.883 71.374 C 68.883 67.696 68.586 64.314 67.993 61.229 C 67.399 58.144 66.035 55.652 63.899 53.753 C 61.882 51.855 58.737 50.905 54.465 50.905 C 49.600 50.905 45.269 52.270 41.472 54.999 C 37.793 57.728 34.886 61.526 32.750 66.391 C 30.614 71.256 29.547 76.833 29.547 83.122 L 29.547 122.814 C 29.547 127.798 30.436 131.179 32.216 132.959 C 33.996 134.739 37.022 135.629 41.294 135.629 L 41.294 139.367 C 39.395 139.248 36.548 139.130 32.750 139.011 C 29.072 138.774 25.275 138.655 21.359 138.655 C 17.443 138.655 13.409 138.774 9.256 139.011 C 5.102 139.130 2.017 139.248 0.000 139.367 L 0.000 135.629 C 4.865 135.629 8.306 134.739 10.323 132.959 C 12.459 131.179 13.527 127.798 13.527 122.814 L 13.527 21.359 C 13.527 16.019 12.578 12.103 10.679 9.612 C 8.781 7.001 5.221 5.696 0.000 5.696 L 0.000 1.958 C 3.797 2.314 7.476 2.492 11.035 2.492 C 14.477 2.492 17.740 2.314 20.825 1.958 C 24.029 1.483 26.936 0.831 29.547 0.000" fill="#12322F" fill-rule="nonzero" transform="translate(723.66,6.22)"/>
      <path d="M 29.546 0.534 L 29.546 109.821 C 29.546 114.923 31.030 118.305 33.996 119.966 C 37.081 121.746 41.294 122.636 46.634 122.636 L 46.634 126.374 C 44.023 126.255 40.404 126.077 35.776 125.840 C 31.148 125.721 26.224 125.662 21.003 125.662 C 17.324 125.662 13.646 125.721 9.967 125.840 C 6.408 126.077 3.678 126.255 1.780 126.374 L 1.780 122.636 C 6.052 122.636 9.078 121.865 10.857 120.322 C 12.637 118.779 13.527 115.872 13.527 111.600 L 13.527 21.893 C 13.527 16.553 12.578 12.637 10.679 10.145 C 8.781 7.535 5.221 6.230 0.000 6.230 L 0.000 2.492 C 3.797 2.848 7.476 3.026 11.035 3.026 C 14.477 3.026 17.740 2.848 20.825 2.492 C 24.029 2.017 26.936 1.365 29.546 0.534 M 58.025 0.000 C 64.314 0.000 69.951 1.721 74.934 5.162 C 79.918 8.484 83.834 13.409 86.682 19.935 C 89.648 26.461 91.131 34.530 91.131 44.142 C 91.131 50.549 90.360 56.898 88.818 63.187 C 87.275 69.357 84.842 74.994 81.520 80.096 C 78.316 85.080 74.104 89.114 68.883 92.199 C 63.780 95.166 57.610 96.649 50.371 96.649 C 44.794 96.649 39.929 95.344 35.776 92.733 C 31.742 90.123 29.013 86.978 27.589 83.300 L 29.369 80.808 C 31.030 84.130 33.403 86.919 36.488 89.174 C 39.692 91.428 43.667 92.555 48.414 92.555 C 55.059 92.555 60.220 90.479 63.899 86.326 C 67.577 82.173 70.129 76.655 71.552 69.773 C 73.095 62.772 73.866 55.059 73.866 46.634 C 73.866 37.141 73.095 29.369 71.552 23.317 C 70.010 17.265 67.696 12.756 64.611 9.790 C 61.526 6.823 57.728 5.340 53.219 5.340 C 47.405 5.340 42.125 7.772 37.378 12.637 C 32.632 17.384 29.606 24.622 28.301 34.352 L 26.165 31.860 C 27.470 21.774 31.030 13.943 36.844 8.366 C 42.777 2.789 49.837 0.000 58.025 0.000" fill="#12322F" fill-rule="nonzero" transform="translate(620.59,51.43)"/>
      <path d="M 40.404 0.000 C 47.998 0.000 54.821 1.661 60.873 4.984 C 66.925 8.306 71.730 13.527 75.290 20.647 C 78.969 27.767 80.808 37.022 80.808 48.414 C 80.808 59.805 78.969 69.061 75.290 76.180 C 71.730 83.181 66.925 88.343 60.873 91.665 C 54.821 94.988 47.998 96.649 40.404 96.649 C 32.928 96.649 26.105 94.988 19.935 91.665 C 13.883 88.343 9.018 83.181 5.340 76.180 C 1.780 69.061 0.000 59.805 0.000 48.414 C 0.000 37.022 1.780 27.767 5.340 20.647 C 9.018 13.527 13.883 8.306 19.935 4.984 C 26.105 1.661 32.928 0.000 40.404 0.000 M 40.404 3.560 C 33.640 3.560 28.063 7.060 23.673 14.061 C 19.401 21.062 17.265 32.513 17.265 48.414 C 17.265 64.314 19.401 75.765 23.673 82.766 C 28.063 89.648 33.640 93.089 40.404 93.089 C 47.168 93.089 52.685 89.648 56.957 82.766 C 61.348 75.765 63.543 64.314 63.543 48.414 C 63.543 32.513 61.348 21.062 56.957 14.061 C 52.685 7.060 47.168 3.560 40.404 3.560" fill="#12322F" fill-rule="nonzero" transform="translate(527.53,51.43)"/>
      <path d="M 33.106 0.000 L 33.106 29.725 L 59.449 29.725 L 59.449 33.284 L 33.106 33.284 L 33.106 102.167 C 33.106 107.744 34.115 111.660 36.132 113.914 C 38.149 116.169 40.938 117.296 44.498 117.296 C 48.058 117.296 51.143 115.872 53.753 113.024 C 56.364 110.058 58.618 105.133 60.517 98.251 L 64.077 99.141 C 62.890 106.023 60.517 111.838 56.957 116.584 C 53.516 121.331 48.176 123.704 40.938 123.704 C 36.903 123.704 33.581 123.170 30.970 122.102 C 28.360 121.153 26.046 119.729 24.029 117.830 C 21.418 115.101 19.579 111.838 18.511 108.041 C 17.562 104.243 17.087 99.200 17.087 92.911 L 17.087 33.284 L 0.000 33.284 L 0.000 29.725 L 17.087 29.725 L 17.087 2.492 C 20.054 2.373 22.901 2.136 25.631 1.780 C 28.360 1.424 30.852 0.831 33.106 0.000" fill="#12322F" fill-rule="nonzero" transform="translate(456.95,24.37)"/>
      <path d="M 27.055 0.000 C 31.801 0.000 35.836 0.771 39.158 2.314 C 42.481 3.856 44.913 5.280 46.456 6.586 C 50.371 9.790 52.745 7.654 53.575 0.178 L 57.669 0.178 C 57.432 3.500 57.254 7.476 57.135 12.103 C 57.017 16.613 56.957 22.724 56.957 30.436 L 52.863 30.436 C 52.151 26.046 50.905 21.774 49.126 17.621 C 47.464 13.468 44.972 10.086 41.650 7.476 C 38.327 4.746 33.996 3.382 28.657 3.382 C 24.503 3.382 21.003 4.568 18.155 6.942 C 15.426 9.196 14.061 12.578 14.061 17.087 C 14.061 20.647 15.129 23.732 17.265 26.343 C 19.401 28.835 22.190 31.208 25.631 33.462 C 29.072 35.598 32.810 37.971 36.844 40.582 C 41.353 43.430 45.447 46.337 49.126 49.304 C 52.804 52.270 55.711 55.533 57.847 59.093 C 60.102 62.653 61.229 66.865 61.229 71.730 C 61.229 77.189 59.805 81.757 56.957 85.436 C 54.109 89.114 50.372 91.903 45.744 93.801 C 41.235 95.700 36.251 96.649 30.792 96.649 C 28.182 96.649 25.690 96.412 23.317 95.937 C 21.062 95.581 18.867 94.988 16.731 94.157 C 15.545 93.564 14.299 92.852 12.993 92.021 C 11.807 91.191 10.620 90.301 9.434 89.352 C 8.247 88.402 7.179 88.462 6.230 89.530 C 5.280 90.479 4.568 92.437 4.094 95.403 L 0.000 95.403 C 0.237 91.606 0.415 86.978 0.534 81.520 C 0.653 76.062 0.712 68.823 0.712 59.805 L 4.806 59.805 C 5.636 66.450 6.823 72.264 8.366 77.248 C 9.908 82.232 12.341 86.148 15.663 88.996 C 18.986 91.725 23.613 93.089 29.547 93.089 C 31.920 93.089 34.293 92.555 36.666 91.487 C 39.158 90.419 41.235 88.640 42.896 86.148 C 44.557 83.656 45.388 80.333 45.388 76.180 C 45.388 70.959 43.489 66.687 39.692 63.365 C 35.895 60.042 31.089 56.542 25.275 52.863 C 21.003 50.134 16.968 47.405 13.171 44.676 C 9.493 41.947 6.467 38.861 4.094 35.420 C 1.839 31.979 0.712 27.826 0.712 22.961 C 0.712 17.621 1.899 13.290 4.272 9.968 C 6.764 6.526 10.027 4.034 14.061 2.492 C 18.096 0.831 22.427 0.000 27.055 0.000" fill="#12322F" fill-rule="nonzero" transform="translate(386.60,51.43)"/>
      <path d="M 20.291 0.000 C 23.376 0.000 26.046 1.127 28.301 3.382 C 30.555 5.636 31.682 8.306 31.682 11.391 C 31.682 14.477 30.555 17.146 28.301 19.401 C 26.046 21.656 23.376 22.783 20.291 22.783 C 17.206 22.783 14.536 21.656 12.281 19.401 C 10.027 17.146 8.900 14.477 8.900 11.391 C 8.900 8.306 10.027 5.636 12.281 3.382 C 14.536 1.127 17.206 0.000 20.291 0.000 M 29.547 42.540 L 29.547 119.610 C 29.547 124.594 30.555 127.976 32.572 129.756 C 34.708 131.535 38.209 132.425 43.074 132.425 L 43.074 136.163 C 41.057 136.045 37.971 135.926 33.818 135.807 C 29.784 135.570 25.690 135.451 21.537 135.451 C 17.502 135.451 13.409 135.570 9.256 135.807 C 5.102 135.926 2.017 136.045 0.000 136.163 L 0.000 132.425 C 4.865 132.425 8.306 131.535 10.323 129.756 C 12.459 127.976 13.527 124.594 13.527 119.610 L 13.527 63.899 C 13.527 58.559 12.578 54.643 10.679 52.151 C 8.781 49.541 5.221 48.236 0.000 48.236 L 0.000 44.498 C 3.797 44.854 7.476 45.032 11.035 45.032 C 14.477 45.032 17.740 44.854 20.825 44.498 C 24.029 44.023 26.936 43.370 29.547 42.540" fill="#12322F" fill-rule="nonzero" transform="translate(329.65,9.42)"/>
      <path d="M 55.355 0.000 C 58.559 0.000 61.348 0.653 63.721 1.958 C 66.213 3.263 68.111 4.984 69.417 7.120 C 70.840 9.137 71.552 11.451 71.552 14.061 C 71.552 17.028 70.603 19.638 68.705 21.893 C 66.925 24.147 64.492 25.275 61.407 25.275 C 58.915 25.275 56.720 24.503 54.821 22.961 C 52.923 21.300 51.973 18.986 51.973 16.019 C 51.973 13.765 52.567 11.866 53.753 10.323 C 55.059 8.662 56.483 7.357 58.025 6.408 C 57.194 5.221 55.949 4.628 54.287 4.628 C 50.609 4.628 47.227 5.755 44.142 8.010 C 41.057 10.145 38.446 12.934 36.310 16.375 C 34.174 19.816 32.513 23.495 31.326 27.411 C 30.140 31.208 29.547 34.768 29.547 38.090 L 29.547 75.824 C 29.547 81.639 31.208 85.554 34.530 87.572 C 37.971 89.470 42.599 90.419 48.414 90.419 L 48.414 94.157 C 45.684 94.039 41.828 93.920 36.844 93.801 C 31.860 93.564 26.580 93.445 21.003 93.445 C 16.968 93.445 12.934 93.564 8.900 93.801 C 4.984 93.920 2.017 94.039 0.000 94.157 L 0.000 90.419 C 4.865 90.419 8.306 89.530 10.323 87.750 C 12.459 85.970 13.527 82.588 13.527 77.604 L 13.527 21.893 C 13.527 16.553 12.578 12.637 10.679 10.145 C 8.781 7.535 5.221 6.230 0.000 6.230 L 0.000 2.492 C 3.797 2.848 7.476 3.026 11.035 3.026 C 14.477 3.026 17.740 2.848 20.825 2.492 C 24.029 2.017 26.936 1.365 29.547 0.534 L 29.547 22.783 C 30.852 19.342 32.691 15.901 35.064 12.459 C 37.556 8.900 40.523 5.933 43.964 3.560 C 47.405 1.187 51.202 0.000 55.355 0.000" fill="#12322F" fill-rule="nonzero" transform="translate(250.39,51.43)"/>
      <path d="M 29.547 0.000 L 29.547 66.569 C 32.632 58.500 36.904 52.923 42.362 49.838 C 47.939 46.752 53.753 45.210 59.805 45.210 C 64.314 45.210 68.052 45.803 71.018 46.990 C 74.104 48.176 76.655 49.838 78.672 51.973 C 80.927 54.347 82.529 57.313 83.478 60.873 C 84.427 64.433 84.902 69.239 84.902 75.290 L 84.902 122.814 C 84.902 127.798 85.910 131.179 87.928 132.959 C 90.064 134.739 93.564 135.629 98.429 135.629 L 98.429 139.367 C 96.412 139.248 93.327 139.130 89.174 139.011 C 85.020 138.774 80.986 138.655 77.070 138.655 C 73.154 138.655 69.298 138.774 65.501 139.011 C 61.822 139.130 59.034 139.248 57.135 139.367 L 57.135 135.629 C 61.407 135.629 64.433 134.739 66.213 132.959 C 67.993 131.179 68.883 127.798 68.883 122.814 L 68.883 71.374 C 68.883 67.696 68.586 64.314 67.993 61.229 C 67.399 58.144 66.035 55.652 63.899 53.753 C 61.882 51.855 58.737 50.905 54.465 50.905 C 49.600 50.905 45.269 52.270 41.472 54.999 C 37.793 57.728 34.886 61.526 32.750 66.391 C 30.614 71.256 29.547 76.833 29.547 83.122 L 29.547 122.814 C 29.547 127.798 30.437 131.179 32.216 132.959 C 33.996 134.739 37.022 135.629 41.294 135.629 L 41.294 139.367 C 39.395 139.248 36.548 139.130 32.750 139.011 C 29.072 138.774 25.275 138.655 21.359 138.655 C 17.443 138.655 13.409 138.774 9.256 139.011 C 5.102 139.130 2.017 139.248 0.000 139.367 L 0.000 135.629 C 4.865 135.629 8.306 134.739 10.323 132.959 C 12.459 131.179 13.527 127.798 13.527 122.814 L 13.527 21.359 C 13.527 16.019 12.578 12.103 10.679 9.612 C 8.781 7.001 5.221 5.696 0.000 5.696 L 0.000 1.958 C 3.797 2.314 7.476 2.492 11.035 2.492 C 14.477 2.492 17.740 2.314 20.825 1.958 C 24.029 1.483 26.936 0.831 29.547 0.000" fill="#12322F" fill-rule="nonzero" transform="translate(144.14,6.22)"/>
      <path d="M 70.135 0.000 C 79.839 0.000 87.779 1.477 93.955 4.431 C 100.277 7.237 105.864 10.560 110.717 14.400 C 113.657 16.616 115.863 16.911 117.333 15.286 C 118.950 13.514 120.053 9.452 120.641 3.102 L 125.714 3.102 C 125.420 8.566 125.199 15.213 125.052 23.040 C 124.905 30.868 124.832 41.207 124.832 54.056 L 119.759 54.056 C 118.730 47.705 117.774 42.684 116.892 38.991 C 116.010 35.151 114.907 31.902 113.584 29.244 C 112.407 26.585 110.790 23.927 108.732 21.268 C 104.174 15.213 98.439 10.856 91.529 8.197 C 84.618 5.391 77.340 3.988 69.694 3.988 C 62.489 3.988 55.946 5.834 50.065 9.526 C 44.331 13.071 39.332 18.240 35.068 25.034 C 30.951 31.828 27.716 40.025 25.363 49.625 C 23.158 59.226 22.055 70.007 22.055 81.970 C 22.055 94.377 23.305 105.380 25.804 114.980 C 28.304 124.433 31.759 132.408 36.170 138.907 C 40.728 145.405 46.022 150.353 52.050 153.750 C 58.225 156.999 64.842 158.624 71.900 158.624 C 78.516 158.624 85.427 157.295 92.631 154.636 C 99.836 151.978 105.497 147.695 109.614 141.787 C 112.849 137.504 115.054 132.851 116.230 127.830 C 117.554 122.808 118.730 115.793 119.759 106.783 L 124.832 106.783 C 124.832 120.223 124.905 131.079 125.052 139.350 C 125.199 147.473 125.420 154.341 125.714 159.953 L 120.641 159.953 C 120.053 153.602 119.024 149.615 117.554 147.990 C 116.230 146.365 113.951 146.587 110.717 148.655 C 105.276 152.495 99.468 155.892 93.293 158.845 C 87.265 161.652 79.472 163.055 69.915 163.055 C 55.946 163.055 43.669 159.879 33.083 153.528 C 22.643 147.178 14.483 138.021 8.601 126.057 C 2.867 114.094 0.000 99.694 0.000 82.857 C 0.000 66.315 3.014 51.841 9.043 39.434 C 15.071 27.028 23.305 17.354 33.744 10.412 C 44.331 3.471 56.461 0.000 70.135 0.000" fill="#12322F" fill-rule="nonzero" transform="translate(0.00,0.00)"/>
    </g>
    <g transform="translate(386.49293518066406, 834.97)">
      <path d="M 59.805 0.000 C 64.314 0.000 68.052 0.593 71.018 1.780 C 74.104 2.967 76.655 4.628 78.672 6.764 C 80.927 9.137 82.529 12.103 83.478 15.663 C 84.427 19.223 84.902 24.029 84.902 30.081 L 84.902 77.604 C 84.902 82.588 85.910 85.970 87.928 87.750 C 90.064 89.530 93.564 90.419 98.429 90.419 L 98.429 94.157 C 96.412 94.039 93.327 93.920 89.174 93.801 C 85.020 93.564 80.986 93.445 77.070 93.445 C 73.154 93.445 69.298 93.564 65.501 93.801 C 61.822 93.920 59.034 94.039 57.135 94.157 L 57.135 90.419 C 61.407 90.419 64.433 89.530 66.213 87.750 C 67.993 85.970 68.883 82.588 68.883 77.604 L 68.883 26.165 C 68.883 22.486 68.586 19.104 67.993 16.019 C 67.399 12.934 66.035 10.442 63.899 8.544 C 61.882 6.645 58.737 5.696 54.465 5.696 C 49.482 5.696 45.091 7.120 41.294 9.967 C 37.615 12.815 34.708 16.731 32.572 21.715 C 30.555 26.580 29.547 32.038 29.547 38.090 L 29.547 77.604 C 29.547 82.588 30.437 85.970 32.216 87.750 C 33.996 89.530 37.022 90.419 41.294 90.419 L 41.294 94.157 C 39.395 94.039 36.548 93.920 32.750 93.801 C 29.072 93.564 25.275 93.445 21.359 93.445 C 17.443 93.445 13.409 93.564 9.256 93.801 C 5.102 93.920 2.017 94.039 0.000 94.157 L 0.000 90.419 C 4.865 90.419 8.306 89.530 10.323 87.750 C 12.459 85.970 13.527 82.588 13.527 77.604 L 13.527 21.893 C 13.527 16.553 12.578 12.637 10.679 10.145 C 8.781 7.535 5.221 6.230 0.000 6.230 L 0.000 2.492 C 3.797 2.848 7.476 3.026 11.035 3.026 C 14.477 3.026 17.740 2.848 20.825 2.492 C 24.029 2.017 26.936 1.365 29.547 0.534 L 29.547 21.537 C 32.632 13.468 36.904 7.891 42.362 4.806 C 47.939 1.602 53.753 0.000 59.805 0.000" fill="#12322F" fill-rule="nonzero" transform="translate(382.58,48.94)"/>
      <path d="M 20.291 0.000 C 23.376 0.000 26.046 1.127 28.301 3.382 C 30.555 5.636 31.682 8.306 31.682 11.391 C 31.682 14.477 30.555 17.146 28.301 19.401 C 26.046 21.656 23.376 22.783 20.291 22.783 C 17.206 22.783 14.536 21.656 12.281 19.401 C 10.027 17.146 8.900 14.477 8.900 11.391 C 8.900 8.306 10.027 5.636 12.281 3.382 C 14.536 1.127 17.206 0.000 20.291 0.000 M 29.547 42.540 L 29.547 119.610 C 29.547 124.594 30.555 127.976 32.572 129.755 C 34.708 131.535 38.209 132.425 43.074 132.425 L 43.074 136.163 C 41.057 136.045 37.971 135.926 33.818 135.807 C 29.784 135.570 25.690 135.451 21.537 135.451 C 17.503 135.451 13.409 135.570 9.256 135.807 C 5.102 135.926 2.017 136.045 0.000 136.163 L 0.000 132.425 C 4.865 132.425 8.306 131.535 10.323 129.755 C 12.459 127.976 13.527 124.594 13.527 119.610 L 13.527 63.899 C 13.527 58.559 12.578 54.643 10.679 52.151 C 8.781 49.541 5.221 48.236 0.000 48.236 L 0.000 44.498 C 3.797 44.854 7.476 45.032 11.035 45.032 C 14.477 45.032 17.740 44.854 20.825 44.498 C 24.029 44.023 26.936 43.370 29.547 42.540" fill="#12322F" fill-rule="nonzero" transform="translate(330.44,6.93)"/>
      <path d="M 57.313 45.210 C 67.043 45.210 75.112 49.244 81.520 57.313 C 87.928 65.263 91.131 77.367 91.131 93.623 C 91.131 104.303 89.292 113.262 85.614 120.500 C 82.054 127.620 77.248 132.959 71.196 136.519 C 65.145 140.079 58.559 141.859 51.439 141.859 C 45.506 141.859 39.751 140.198 34.174 136.875 C 28.716 133.434 24.622 128.391 21.893 121.746 L 25.453 123.704 C 28.419 128.450 32.098 132.010 36.488 134.383 C 40.879 136.638 45.388 137.765 50.016 137.765 C 57.966 137.765 63.899 134.205 67.815 127.086 C 71.849 119.847 73.866 108.693 73.866 93.623 C 73.866 84.012 73.095 76.002 71.552 69.595 C 70.010 63.187 67.637 58.440 64.433 55.355 C 61.229 52.151 57.135 50.549 52.151 50.549 C 46.693 50.549 41.591 53.041 36.844 58.025 C 32.216 62.890 29.369 70.069 28.301 79.562 L 26.165 77.070 C 27.470 66.984 30.970 59.152 36.666 53.575 C 42.481 47.998 49.363 45.210 57.313 45.210 M 29.547 0.000 L 29.547 130.111 C 28.004 131.417 26.402 132.781 24.741 134.205 C 23.198 135.511 21.656 136.816 20.113 138.121 C 18.570 139.426 16.968 140.791 15.307 142.215 L 12.281 140.969 C 12.756 139.308 13.053 137.646 13.171 135.985 C 13.409 134.205 13.527 132.425 13.527 130.645 L 13.527 21.359 C 13.527 16.019 12.578 12.103 10.679 9.612 C 8.781 7.001 5.221 5.696 0.000 5.696 L 0.000 1.958 C 3.797 2.314 7.476 2.492 11.035 2.492 C 14.477 2.492 17.740 2.314 20.825 1.958 C 24.029 1.483 26.936 0.831 29.547 0.000" fill="#12322F" fill-rule="nonzero" transform="translate(225.70,3.73)"/>
      <path d="M 40.404 0.000 C 47.998 0.000 54.821 1.661 60.873 4.984 C 66.925 8.306 71.730 13.527 75.290 20.647 C 78.969 27.767 80.808 37.022 80.808 48.414 C 80.808 59.805 78.969 69.061 75.290 76.180 C 71.730 83.181 66.925 88.343 60.873 91.665 C 54.821 94.988 47.998 96.649 40.404 96.649 C 32.928 96.649 26.105 94.988 19.935 91.665 C 13.883 88.343 9.018 83.181 5.340 76.180 C 1.780 69.061 0.000 59.805 0.000 48.414 C 0.000 37.022 1.780 27.767 5.340 20.647 C 9.018 13.527 13.883 8.306 19.935 4.984 C 26.105 1.661 32.928 0.000 40.404 0.000 M 40.404 3.560 C 33.640 3.560 28.063 7.060 23.673 14.061 C 19.401 21.062 17.265 32.513 17.265 48.414 C 17.265 64.314 19.401 75.765 23.673 82.766 C 28.063 89.648 33.640 93.089 40.404 93.089 C 47.168 93.089 52.685 89.648 56.957 82.766 C 61.348 75.765 63.543 64.314 63.543 48.414 C 63.543 32.513 61.348 21.062 56.957 14.061 C 52.685 7.060 47.168 3.560 40.404 3.560" fill="#12322F" fill-rule="nonzero" transform="translate(135.84,48.94)"/>
      <path d="M 48.486 0.323 C 84.812 -2.009 129.534 7.493 112.602 55.221 C 108.490 66.815 92.556 73.903 81.772 77.178 C 97.988 99.317 111.893 124.095 129.703 144.953 C 137.577 154.174 147.187 158.814 158.622 162.395 C 132.754 164.355 120.162 159.814 101.909 141.322 C 92.140 129.694 82.379 112.063 73.500 99.393 C 59.145 78.915 63.217 79.369 38.607 79.998 C 38.501 95.959 38.189 112.525 38.373 128.470 C 38.583 146.640 52.342 143.605 56.523 147.475 C 52.463 149.228 7.978 149.113 1.155 148.088 L 1.037 146.740 C 4.179 144.176 8.756 144.176 12.471 142.787 C 15.024 141.836 16.642 140.057 17.710 137.593 C 18.733 135.228 19.065 132.399 19.175 129.844 C 19.760 116.231 20.669 19.121 17.353 11.231 C 14.704 4.929 7.031 6.070 1.788 3.763 C 0.342 3.126 0.478 2.117 0.000 0.711 C 15.189 -0.265 33.965 1.257 48.486 0.323 M 79.567 69.313 C 112.659 45.602 92.805 -0.919 50.778 5.052 C 47.044 5.350 44.256 5.128 41.256 7.195 C 36.599 13.342 38.561 63.854 38.616 75.069 C 53.538 75.391 65.733 76.219 79.567 69.313" fill="#12322F" fill-rule="nonzero" transform="translate(0.00,0.00)"/>
    </g>
    <g transform="translate(257.26, 1059.37)">
      <path d="M 0.000 0.858 C 26.172 -1.451 100.236 1.735 130.523 0.820 C 131.391 0.797 131.689 2.489 132.138 3.686 L 39.600 3.602 C 34.593 3.602 4.489 4.006 1.120 3.335 L 0.000 0.858" fill="#C7A35A" fill-rule="nonzero" transform="translate(607.34,0.00)"/>
    </g>
    <g transform="translate(757.26, 1059.37)">
      <path d="M 0.000 0.493 C 11.075 -0.406 129.001 0.059 130.572 0.814 L 131.286 3.290 L 41.367 3.321 C 35.045 3.344 5.045 4.098 1.098 2.948 L 0.000 0.493" fill="#C7A35A" fill-rule="nonzero" transform="translate(-607.34,0.34)"/>
    </g>
    <text x="627" y="1078" text-anchor="middle" font-family="'Playfair Display', Georgia, serif" font-size="44" font-weight="400" letter-spacing="0.61em" fill="#C7A35A">DESIGN</text>
    <text x="627" y="1170" text-anchor="middle" font-family="'DM Sans', Arial, sans-serif" font-size="30" font-weight="400" letter-spacing="0.5em" fill="#12322F">CAPE TOWN</text>
  
</svg>
