<svg xmlns="http://www.w3.org/2000/svg" viewBox="0 0 620 980" width="620" height="980">
  <title>Christopher Robin Design — Small Use Mark</title>
  
    <g transform="translate(57.704975891113264,90) scale(1.05)">
      <path d="M 138.186 0.000 C 139.631 0.552 140.273 0.676 141.558 1.500 C 133.278 29.360 136.813 51.708 159.477 71.502 C 161.336 60.817 165.132 53.477 170.215 43.873 L 173.172 45.671 C 167.601 57.670 164.255 66.285 166.511 79.612 C 180.946 97.721 187.317 108.285 193.041 131.393 C 206.820 113.301 210.372 97.307 221.865 78.788 C 229.684 66.182 248.707 60.318 260.505 53.337 C 266.198 49.968 273.995 42.370 279.284 37.744 C 280.000 39.457 280.092 40.068 281.143 41.509 C 277.897 45.681 274.193 50.696 270.649 54.501 C 301.332 55.030 299.069 67.725 331.642 61.705 C 323.091 65.815 317.718 67.247 308.153 67.528 C 296.950 67.858 286.768 62.855 275.946 62.443 C 251.565 61.732 229.532 76.907 221.507 99.941 C 218.626 108.051 216.195 116.395 213.146 124.528 C 210.044 132.800 202.979 146.454 201.569 154.583 C 200.388 161.339 203.094 178.584 203.764 186.417 C 204.953 200.315 204.755 215.939 207.331 229.344 C 225.233 216.955 244.051 212.827 260.025 199.079 C 276.342 184.570 274.284 160.259 288.033 143.972 C 294.481 136.341 302.148 128.169 311.385 124.381 C 324.463 119.013 328.037 112.129 337.282 102.655 C 342.137 97.690 350.726 92.748 356.297 87.855 L 358.599 90.401 C 347.411 100.188 341.634 104.778 332.999 116.967 C 346.450 116.681 351.473 117.101 364.391 120.776 L 365.046 121.773 C 364.421 122.354 363.598 123.149 362.966 123.697 C 327.565 115.775 297.712 136.872 289.763 172.040 C 288.803 176.278 288.201 180.732 287.599 185.042 C 299.351 180.655 307.826 179.857 319.219 176.818 C 330.164 173.898 340.689 160.269 355.154 163.415 C 357.966 163.801 362.067 163.704 364.254 165.768 C 360.939 168.348 347.533 162.393 330.270 178.383 C 340.285 180.932 344.553 182.802 353.767 187.628 L 351.023 190.335 C 325.027 178.487 301.302 187.509 279.703 205.317 C 274.726 210.126 267.829 219.633 262.044 222.903 C 230.896 240.500 211.302 250.196 207.598 289.059 C 206.203 303.657 197.263 319.158 199.603 337.358 C 204.747 377.314 239.531 374.142 269.803 382.574 C 282.066 385.845 336.390 400.091 343.806 406.394 L 343.249 406.849 C 327.725 402.260 309.175 400.800 292.964 398.190 C 202.171 383.569 110.206 388.277 19.863 403.655 C 16.598 404.210 6.499 406.880 4.353 405.506 C 7.486 403.361 13.972 402.019 17.907 400.399 C 38.680 391.737 60.535 386.783 82.302 381.486 C 94.955 378.406 114.096 375.905 125.015 369.366 C 129.658 366.639 133.645 362.925 136.694 358.486 C 141.833 350.862 143.624 341.855 147.511 334.034 C 155.338 318.259 164.050 306.124 168.241 288.612 C 173.843 266.555 172.845 243.101 159.934 223.605 C 142.186 196.804 117.800 174.183 85.385 167.460 C 77.839 165.895 71.692 165.772 64.791 164.763 C 44.483 161.794 34.454 168.906 18.136 179.012 L 15.997 176.324 C 23.266 171.200 29.610 167.043 37.375 162.678 C 19.690 157.130 15.743 153.695 0.000 145.796 L 2.445 144.065 C 26.180 153.494 34.422 158.104 60.243 155.409 C 57.069 152.009 51.017 145.591 48.587 141.723 C 39.439 127.156 36.001 118.555 22.998 106.487 L 26.146 102.877 C 31.093 107.227 35.964 111.661 40.759 116.178 C 45.916 94.872 47.018 90.473 41.772 68.830 C 53.963 87.569 50.057 96.350 48.677 116.967 C 47.527 134.172 67.302 148.477 81.744 153.692 C 88.836 156.254 98.528 157.707 106.399 160.131 C 113.453 162.358 120.318 165.145 126.930 168.465 C 144.225 177.247 164.065 194.336 177.448 208.450 C 180.778 174.054 181.098 141.585 169.331 108.524 C 149.859 53.803 109.556 90.910 87.556 31.336 C 95.717 38.772 102.183 50.365 111.434 55.978 C 118.661 60.362 130.699 62.822 139.092 65.003 C 127.960 39.248 138.191 33.926 111.760 15.087 L 113.093 12.151 C 120.661 17.384 125.197 20.563 131.383 27.305 C 132.222 18.785 135.687 8.375 138.186 0.000" fill="#12322F" fill-rule="nonzero" transform="translate(58.76,56.06)"/>
      <path d="M 0.000 0.000 C 4.766 0.630 9.798 1.116 14.598 1.648 C 32.650 3.653 50.903 15.099 47.337 35.845 L 44.189 39.456 C 14.202 43.229 5.831 24.981 0.000 0.000" fill="#6B7A3D" fill-rule="nonzero" transform="translate(37.57,123.09)"/>
      <path d="M 2.372 51.766 C -0.669 46.371 -0.501 35.435 1.275 29.550 C 6.106 13.487 21.974 8.424 34.641 0.000 C 37.758 27.146 37.178 46.517 5.329 53.565 L 2.372 51.766" fill="#6B7A3D" fill-rule="nonzero" transform="translate(226.60,48.17)"/>
      <path d="M 0.000 38.757 C 6.624 12.602 17.970 -5.011 48.578 1.279 L 50.718 3.967 C 46.185 36.277 25.162 34.523 0.000 38.757" fill="#6B7A3D" fill-rule="nonzero" transform="translate(26.18,231.10)"/>
      <path d="M 0.000 13.783 C 14.134 3.914 27.689 -4.887 45.556 3.120 C 54.173 6.981 56.225 11.705 61.204 18.841 L 58.760 20.572 C 37.640 40.942 18.485 27.857 0.000 13.783" fill="#6B7A3D" fill-rule="nonzero" transform="translate(0.00,181.28)"/>
      <path d="M 6.496 56.059 C -9.089 30.816 5.697 14.207 26.271 0.000 C 30.607 13.913 35.873 27.093 29.136 41.481 C 23.481 53.555 14.906 53.300 9.869 57.559 C 8.584 56.735 7.941 56.611 6.496 56.059" fill="#6B7A3D" fill-rule="nonzero" transform="translate(190.45,-0.00)"/>
      <path d="M 0.000 36.814 C 2.180 6.599 20.890 3.574 45.598 0.000 C 41.300 26.925 33.221 44.097 1.860 40.580 C 0.808 39.138 0.716 38.527 0.000 36.814" fill="#6B7A3D" fill-rule="nonzero" transform="translate(336.19,56.66)"/>
      <path d="M 0.000 35.712 C 4.801 4.711 19.457 2.323 46.711 0.000 C 42.260 26.844 31.956 41.470 2.302 38.258 L 0.000 35.712" fill="#6B7A3D" fill-rule="nonzero" transform="translate(415.06,108.20)"/>
      <path d="M 2.744 1.179 C 33.557 -3.901 41.955 7.482 51.383 34.350 C 35.912 33.154 19.259 36.212 8.620 23.342 C 1.623 14.879 3.026 11.459 0.000 3.887 L 2.744 1.179" fill="#6B7A3D" fill-rule="nonzero" transform="translate(409.78,242.51)"/>
      <path d="M 1.425 9.313 L 2.744 8.680 C 7.362 6.409 10.777 3.223 15.829 1.549 C 33.717 -4.382 46.109 7.904 58.837 18.304 C 39.372 31.612 17.338 38.381 1.700 14.847 C 1.120 13.981 0.556 13.110 0.000 12.234 C 0.633 11.686 1.456 10.892 2.081 10.310 L 1.425 9.313" fill="#6B7A3D" fill-rule="nonzero" transform="translate(421.73,167.52)"/>
      <path d="M 0.000 0.238 C 24.121 0.162 44.582 -4.108 49.925 26.974 L 48.592 29.911 C 21.667 39.259 8.442 23.126 0.000 0.238" fill="#6B7A3D" fill-rule="nonzero" transform="translate(121.93,41.24)"/>
    </g>
    <path d="M 70.135 0.000 C 79.839 0.000 87.779 1.477 93.955 4.431 C 100.277 7.237 105.864 10.560 110.717 14.400 C 113.657 16.616 115.863 16.911 117.333 15.286 C 118.950 13.514 120.053 9.452 120.641 3.102 L 125.714 3.102 C 125.420 8.566 125.199 15.213 125.052 23.040 C 124.905 30.868 124.832 41.207 124.832 54.056 L 119.759 54.056 C 118.730 47.705 117.774 42.684 116.892 38.991 C 116.010 35.151 114.907 31.902 113.584 29.244 C 112.407 26.585 110.790 23.927 108.732 21.268 C 104.174 15.213 98.439 10.856 91.529 8.197 C 84.618 5.391 77.340 3.988 69.694 3.988 C 62.489 3.988 55.946 5.834 50.065 9.526 C 44.331 13.071 39.332 18.240 35.068 25.034 C 30.951 31.828 27.716 40.025 25.363 49.625 C 23.158 59.226 22.055 70.007 22.055 81.970 C 22.055 94.377 23.305 105.380 25.804 114.980 C 28.304 124.433 31.759 132.408 36.170 138.907 C 40.728 145.405 46.022 150.353 52.050 153.750 C 58.225 156.999 64.842 158.624 71.900 158.624 C 78.516 158.624 85.427 157.295 92.631 154.636 C 99.836 151.978 105.497 147.695 109.614 141.787 C 112.849 137.504 115.054 132.851 116.230 127.830 C 117.554 122.808 118.730 115.793 119.759 106.783 L 124.832 106.783 C 124.832 120.223 124.905 131.079 125.052 139.350 C 125.199 147.473 125.420 154.341 125.714 159.953 L 120.641 159.953 C 120.053 153.602 119.024 149.615 117.554 147.990 C 116.230 146.365 113.951 146.587 110.717 148.655 C 105.276 152.495 99.468 155.892 93.293 158.845 C 87.265 161.652 79.472 163.055 69.915 163.055 C 55.946 163.055 43.669 159.879 33.083 153.528 C 22.643 147.178 14.483 138.021 8.601 126.057 C 2.867 114.094 0.000 99.694 0.000 82.857 C 0.000 66.315 3.014 51.841 9.043 39.434 C 15.071 27.028 23.305 17.354 33.744 10.412 C 44.331 3.471 56.461 0.000 70.135 0.000" fill="#12322F" fill-rule="nonzero" transform="translate(160.83211517333984,646.0541259765625)"/>
    <path d="M 48.486 0.323 C 84.812 -2.009 129.534 7.493 112.602 55.221 C 108.490 66.815 92.556 73.903 81.772 77.178 C 97.988 99.317 111.893 124.095 129.703 144.953 C 137.577 154.174 147.187 158.814 158.622 162.395 C 132.754 164.355 120.162 159.814 101.909 141.322 C 92.140 129.694 82.379 112.063 73.500 99.393 C 59.145 78.915 63.217 79.369 38.607 79.998 C 38.501 95.959 38.189 112.525 38.373 128.470 C 38.583 146.640 52.342 143.605 56.523 147.475 C 52.463 149.228 7.978 149.113 1.155 148.088 L 1.037 146.740 C 4.179 144.176 8.756 144.176 12.471 142.787 C 15.024 141.836 16.642 140.057 17.710 137.593 C 18.733 135.228 19.065 132.399 19.175 129.844 C 19.760 116.231 20.669 19.121 17.353 11.231 C 14.704 4.929 7.031 6.070 1.788 3.763 C 0.342 3.126 0.478 2.117 0.000 0.711 C 15.189 -0.265 33.965 1.257 48.486 0.323 M 79.567 69.313 C 112.659 45.602 92.805 -0.919 50.778 5.052 C 47.044 5.350 44.256 5.128 41.256 7.195 C 36.599 13.342 38.561 63.854 38.616 75.069 C 53.538 75.391 65.733 76.219 79.567 69.313" fill="#12322F" fill-rule="nonzero" transform="translate(300.54610443115234,646.2929412841797)"/>
    <line x1="250" y1="864.1089050292969" x2="370" y2="864.1089050292969" stroke="#C7A35A" stroke-width="3"/>
    <text x="310" y="912.1089050292969" text-anchor="middle" font-family="'Playfair Display', Georgia, serif" font-size="30" font-weight="400" letter-spacing="0.55em" fill="#C7A35A">DESIGN</text>
  
</svg>
